<svg xmlns="http://www.w3.org/2000/svg" viewBox="0 0 79.6 32.46"><g fill="#231f20"><path d="m45.5 14c2.5.7 3.8 2.4 3.8 5.1 0 1.7-.6 3.1-1.7 4.1s-2.7 1.5-4.6 1.5h-8v-19.6h7c1.9 0 3.3.4 4.2 1.2 1 .8 1.4 2 1.4 3.6 0 1-.2 1.8-.5 2.5-.4.6-.9 1.2-1.6 1.6zm-7.2-1.1h3.3c.9 0 1.6-.2 2.1-.6s.7-1 .7-1.9-.2-1.5-.7-1.9-1.2-.6-2.1-.6h-3.3zm4.2 8.9c2.2 0 3.3-1 3.3-2.9 0-1.1-.3-1.8-.9-2.3s-1.4-.7-2.4-.7h-4.2v5.9z"></path><path d="m51.3 5.1h3.1v3.2h-3.1zm0 5.7h3.1v13.9h-3.1z"></path><path d="m62.1 25c-1.2 0-2.1-.3-2.8-1-.6-.7-.9-1.5-.9-2.5v-8.1h-2.1l.3-2.5h1.8v-3.3l3.1-.3v3.5h3.3v2.5h-3.3v6.7c0 .8 0 1.4.1 1.7s.3.5.6.6.9.1 1.7.1h.8l-.2 2.6z"></path><path d="m72.6 25c-1.4 0-2.7-.3-3.8-1s-1.9-1.5-2.5-2.6-.8-2.3-.8-3.6.3-2.5.8-3.6c.6-1.1 1.4-2 2.5-2.6 1.1-.7 2.3-1 3.8-1s2.7.3 3.8 1c1.1.6 1.9 1.5 2.4 2.6.6 1.1.8 2.3.8 3.6s-.3 2.5-.8 3.6c-.6 1.1-1.4 2-2.4 2.6-1.1.7-2.3 1-3.8 1zm0-2.7c1.2 0 2.2-.4 2.8-1.2.7-.8 1-1.9 1-3.4 0-1.4-.3-2.5-1-3.3s-1.6-1.3-2.8-1.3-2.2.4-2.8 1.3c-.7.8-1 1.9-1 3.3s.3 2.5 1 3.4c.7.8 1.6 1.2 2.8 1.2z"></path></g><path clip-rule="evenodd" d="m30 15c0 8.3-6.7 15-15 15-1 0-1.9-.1-2.8-.3l-6.3 2.7c-.6.2-1.2-.1-1.3-.7l-.9-6.8c-2.3-2.7-3.7-6.1-3.7-9.9 0-8.3 6.7-15 15-15s15 6.7 15 15zm-12.7-3.6c.2-.7-.2-1.4-.9-1.5-.7-.2-1.4.2-1.5.9l-2.1 7.8c-.2.7.2 1.4.9 1.5.7.2 1.4-.2 1.5-.9zm-11.9 2.7c-.5.5-.5 1.3 0 1.8l3.7 3.7c.5.5 1.3.5 1.8 0s.5-1.3 0-1.8l-2.9-2.8 2.9-2.9c.5-.5.5-1.3 0-1.8s-1.3-.5-1.8 0zm19.2 1.8c.5-.5.5-1.3 0-1.8l-3.7-3.7c-.5-.5-1.3-.5-1.8 0s-.5 1.3 0 1.8l2.9 2.8-2.9 2.9c-.5.5-.5 1.3 0 1.8s1.3.5 1.8 0z" fill="#2baaff" fill-rule="evenodd"></path></svg>